<?xml version="1.0" encoding="utf-8"?>
<!-- Generator: Adobe Illustrator 15.0.0, SVG Export Plug-In  -->
<!DOCTYPE svg PUBLIC "-//W3C//DTD SVG 1.1//EN" "http://www.w3.org/Graphics/SVG/1.1/DTD/svg11.dtd" [
	<!ENTITY ns_flows "http://ns.adobe.com/Flows/1.0/">
]>
<svg version="1.1"
	 xmlns="http://www.w3.org/2000/svg" xmlns:xlink="http://www.w3.org/1999/xlink" xmlns:a="http://ns.adobe.com/AdobeSVGViewerExtensions/3.0/"
	 x="0px" y="0px" width="37px" height="87px" viewBox="-2.5 -2 37 87" overflow="visible" enable-background="new -2.5 -2 37 87"
	 xml:space="preserve">
<defs>
</defs>
<path fill="#9CC134" d="M7.5,1.5v4.25c0,0.208,0.073,0.386,0.219,0.531S8.042,6.5,8.25,6.5h4.25v6.25
	c0,0.208-0.073,0.385-0.219,0.531c-0.146,0.146-0.323,0.219-0.531,0.219h-8.5c-0.208,0-0.386-0.073-0.531-0.219
	C2.573,13.135,2.5,12.958,2.5,12.75V2.25c0-0.208,0.073-0.385,0.219-0.531C2.864,1.573,3.042,1.5,3.25,1.5H7.5 M4.75,9.5h5.5
	c0.073,0,0.133-0.023,0.18-0.07s0.07-0.106,0.07-0.18v-0.5c0-0.072-0.023-0.133-0.07-0.18S10.323,8.5,10.25,8.5h-5.5
	c-0.073,0-0.133,0.023-0.18,0.07S4.5,8.678,4.5,8.75v0.5c0,0.073,0.023,0.133,0.07,0.18S4.677,9.5,4.75,9.5 M4.75,11.5h5.5
	c0.073,0,0.133-0.023,0.18-0.07s0.07-0.105,0.07-0.18v-0.5c0-0.072-0.023-0.133-0.07-0.18s-0.106-0.07-0.18-0.07h-5.5
	c-0.073,0-0.133,0.023-0.18,0.07S4.5,10.678,4.5,10.75v0.5c0,0.073,0.023,0.133,0.07,0.18S4.677,11.5,4.75,11.5 M8.5,1.523
	c0.427,0.078,0.771,0.248,1.031,0.508l2.438,2.438c0.262,0.261,0.43,0.604,0.508,1.031H8.5V1.523 M7.5,0H3.25
	C2.647,0,2.082,0.234,1.658,0.658C1.233,1.084,1,1.649,1,2.25v10.5c0,0.602,0.233,1.166,0.656,1.59C2.082,14.766,2.647,15,3.25,15
	h8.5c0.604,0,1.168-0.234,1.592-0.658C13.768,13.916,14,13.352,14,12.75V6.5c0-0.188-0.034-0.368-0.098-0.534
	c0.076-0.235,0.096-0.488,0.05-0.736c-0.134-0.73-0.444-1.343-0.923-1.822l-2.438-2.437c-0.48-0.479-1.093-0.789-1.82-0.923
	C8.682,0.032,8.59,0.023,8.5,0.023c-0.159,0-0.316,0.025-0.466,0.074C7.868,0.035,7.688,0,7.5,0L7.5,0z"/>
<path fill="#9CC134" d="M7.5,18.5c0.828,0,1.535,0.293,2.121,0.879S10.5,20.672,10.5,21.5s-0.293,1.535-0.879,2.121
	S8.328,24.5,7.5,24.5s-1.535-0.293-2.121-0.879S4.5,22.328,4.5,21.5s0.293-1.535,0.879-2.121S6.672,18.5,7.5,18.5 M10.297,24
	c0.317,0,0.607,0.052,0.871,0.156c0.264,0.104,0.484,0.244,0.668,0.418c0.184,0.175,0.344,0.386,0.484,0.633
	c0.141,0.248,0.253,0.502,0.336,0.762c0.083,0.262,0.152,0.543,0.207,0.848c0.055,0.306,0.091,0.59,0.109,0.853
	c0.019,0.265,0.026,0.533,0.026,0.81c0,0.625-0.19,1.117-0.569,1.479c-0.381,0.36-0.887,0.543-1.517,0.543H4.086
	c-0.63,0-1.136-0.183-1.516-0.543C2.19,29.596,2,29.104,2,28.479c0-0.275,0.009-0.545,0.027-0.81
	c0.019-0.263,0.055-0.547,0.109-0.853c0.054-0.305,0.124-0.586,0.207-0.848c0.083-0.26,0.195-0.514,0.336-0.762
	c0.141-0.247,0.302-0.458,0.485-0.633c0.183-0.174,0.404-0.313,0.668-0.418S4.386,24,4.703,24c0.047,0,0.156,0.056,0.328,0.168
	s0.365,0.237,0.582,0.375c0.216,0.138,0.496,0.263,0.844,0.375c0.348,0.111,0.693,0.168,1.043,0.168s0.695-0.057,1.043-0.168
	c0.348-0.112,0.628-0.237,0.844-0.375c0.217-0.138,0.41-0.263,0.582-0.375S10.25,24,10.297,24 M7.5,17
	c-1.219,0-2.318,0.456-3.182,1.318C3.455,19.18,3,20.281,3,21.5c0,0.452,0.062,0.887,0.186,1.301
	c-0.405,0.173-0.759,0.404-1.058,0.688c-0.287,0.275-0.54,0.603-0.752,0.976c-0.192,0.339-0.348,0.691-0.461,1.049
	c-0.103,0.324-0.189,0.674-0.255,1.037c-0.063,0.354-0.106,0.693-0.129,1.012C0.51,27.859,0.5,28.164,0.5,28.477
	c0,1.306,0.562,2.115,1.035,2.566C2.193,31.669,3.075,32,4.086,32h6.828c1.011,0,1.893-0.331,2.55-0.957
	c0.474-0.451,1.036-1.262,1.036-2.566c0-0.312-0.01-0.617-0.031-0.914c-0.021-0.317-0.064-0.658-0.129-1.012
	c-0.064-0.363-0.15-0.713-0.254-1.037c-0.113-0.356-0.27-0.708-0.461-1.047c-0.213-0.374-0.466-0.702-0.752-0.976
	c-0.3-0.287-0.655-0.518-1.059-0.69C11.938,22.387,12,21.952,12,21.5c0-1.219-0.456-2.319-1.318-3.182C9.82,17.455,8.719,17,7.5,17
	L7.5,17z"/>
<path fill="#9CC134" d="M4.312,36c0.072,0,0.127,0.008,0.164,0.023c0.094,0.031,0.23,0.23,0.414,0.594
	c0.058,0.1,0.135,0.24,0.233,0.422c0.099,0.184,0.19,0.348,0.272,0.496c0.084,0.148,0.164,0.289,0.242,0.418
	c0.016,0.021,0.062,0.086,0.137,0.195c0.076,0.109,0.133,0.203,0.168,0.277C5.98,38.502,6,38.576,6,38.648
	c0,0.105-0.074,0.234-0.223,0.391c-0.149,0.157-0.311,0.301-0.484,0.43c-0.175,0.131-0.336,0.269-0.484,0.414
	c-0.148,0.146-0.223,0.265-0.223,0.359c0,0.047,0.014,0.105,0.039,0.176c0.025,0.071,0.048,0.125,0.066,0.161
	c0.019,0.037,0.055,0.1,0.108,0.188c0.056,0.09,0.085,0.139,0.091,0.148c0.396,0.715,0.849,1.326,1.359,1.836
	c0.511,0.513,1.122,0.965,1.836,1.358c0.012,0.007,0.061,0.035,0.148,0.091c0.088,0.055,0.151,0.092,0.188,0.11
	c0.036,0.02,0.09,0.041,0.16,0.065c0.07,0.026,0.129,0.039,0.176,0.039c0.094,0,0.215-0.074,0.359-0.224
	c0.145-0.148,0.283-0.309,0.414-0.483c0.13-0.174,0.273-0.336,0.43-0.483c0.157-0.148,0.286-0.224,0.391-0.224
	c0.073,0,0.147,0.021,0.224,0.056c0.075,0.036,0.168,0.094,0.276,0.168c0.109,0.075,0.176,0.121,0.195,0.137
	c0.13,0.078,0.27,0.16,0.418,0.242c0.148,0.084,0.312,0.176,0.496,0.272c0.184,0.101,0.323,0.179,0.422,0.233
	c0.364,0.185,0.562,0.32,0.594,0.414C12.993,44.561,13,44.616,13,44.688c0,0.142-0.025,0.324-0.078,0.552
	c-0.052,0.227-0.105,0.405-0.164,0.534c-0.109,0.263-0.427,0.537-0.953,0.828C11.316,46.868,10.831,47,10.352,47
	c-0.141,0-0.276-0.008-0.41-0.027c-0.133-0.018-0.281-0.051-0.448-0.098s-0.29-0.084-0.371-0.113
	c-0.081-0.027-0.226-0.082-0.435-0.16c-0.207-0.078-0.336-0.125-0.383-0.141c-0.511-0.182-0.966-0.398-1.367-0.648
	c-0.666-0.41-1.354-0.973-2.065-1.684S3.6,42.73,3.188,42.063c-0.25-0.4-0.466-0.855-0.648-1.368
	c-0.017-0.046-0.063-0.174-0.142-0.383c-0.078-0.207-0.131-0.351-0.16-0.433c-0.028-0.08-0.066-0.203-0.113-0.371
	c-0.047-0.166-0.079-0.317-0.098-0.449C2.008,38.927,2,38.789,2,38.648c0-0.479,0.133-0.963,0.398-1.453
	c0.292-0.525,0.568-0.843,0.829-0.953c0.13-0.057,0.309-0.111,0.535-0.164C3.988,36.027,4.172,36,4.312,36 M4.312,34.5
	c-0.252,0-0.53,0.036-0.879,0.114c-0.33,0.077-0.59,0.159-0.806,0.253c-0.572,0.24-1.068,0.751-1.54,1.6
	C0.695,37.19,0.5,37.92,0.5,38.648c0,0.212,0.014,0.42,0.042,0.618c0.028,0.203,0.075,0.421,0.14,0.649
	c0.058,0.208,0.106,0.362,0.143,0.463c0.027,0.08,0.085,0.238,0.17,0.464c0.065,0.173,0.106,0.284,0.122,0.331
	c0.227,0.637,0.492,1.194,0.798,1.685c0.47,0.763,1.091,1.527,1.896,2.332c0.795,0.795,1.582,1.435,2.342,1.9
	c0.486,0.305,1.045,0.569,1.649,0.784c0.073,0.024,0.185,0.065,0.358,0.132l0.062,0.023c0.196,0.074,0.336,0.125,0.418,0.152
	c0.073,0.027,0.231,0.076,0.445,0.137c0.242,0.068,0.458,0.115,0.658,0.142c0.176,0.026,0.382,0.04,0.605,0.04
	c0.73,0,1.461-0.195,2.17-0.58c0.859-0.477,1.371-0.973,1.621-1.568c0.084-0.186,0.168-0.451,0.241-0.778
	c0.08-0.341,0.118-0.632,0.118-0.886c0-0.256-0.04-0.484-0.121-0.696c-0.23-0.615-0.777-0.944-1.285-1.202
	c-0.103-0.059-0.24-0.135-0.414-0.229c-0.183-0.099-0.337-0.185-0.477-0.264c-0.125-0.069-0.234-0.133-0.336-0.193
	c-0.021-0.016-0.049-0.034-0.079-0.056l-0.079-0.055c-0.188-0.128-0.333-0.215-0.471-0.283c-0.307-0.143-0.596-0.209-0.887-0.209
	c-0.502,0-0.98,0.214-1.425,0.635c-0.155,0.147-0.303,0.306-0.44,0.474c-0.446-0.276-0.842-0.585-1.174-0.918
	c-0.334-0.333-0.642-0.727-0.92-1.178c0.162-0.133,0.321-0.282,0.474-0.44c0.42-0.445,0.634-0.924,0.634-1.425
	c0-0.295-0.066-0.587-0.199-0.866c-0.076-0.157-0.169-0.311-0.287-0.483c-0.051-0.074-0.091-0.13-0.117-0.169
	c-0.062-0.103-0.125-0.212-0.188-0.327c-0.082-0.146-0.169-0.301-0.263-0.474c-0.098-0.18-0.174-0.32-0.234-0.424
	c-0.256-0.505-0.583-1.049-1.195-1.281C4.803,34.541,4.572,34.5,4.312,34.5L4.312,34.5z"/>
<path fill="#9CC134" d="M12.43,54.26c0.289,0,0.541,0.105,0.752,0.315c0.213,0.213,0.318,0.464,0.318,0.761
	c0,0.356-0.109,0.693-0.328,1.018s-0.49,0.6-0.816,0.829c-1.68,1.171-2.724,1.902-3.135,2.188c-0.045,0.032-0.139,0.103-0.285,0.206
	c-0.145,0.106-0.265,0.191-0.361,0.256c-0.096,0.064-0.211,0.138-0.348,0.219c-0.136,0.081-0.265,0.141-0.386,0.182
	c-0.12,0.04-0.231,0.062-0.334,0.062H7.5H7.493c-0.103,0-0.214-0.021-0.334-0.062c-0.121-0.041-0.25-0.102-0.386-0.183
	c-0.137-0.08-0.252-0.153-0.348-0.218c-0.097-0.064-0.217-0.149-0.361-0.256c-0.146-0.104-0.24-0.174-0.285-0.206
	c-0.406-0.286-0.991-0.695-1.756-1.229c-0.762-0.531-1.219-0.851-1.373-0.959c-0.276-0.188-0.538-0.449-0.783-0.778
	C1.623,56.074,1.5,55.769,1.5,55.485c0-0.351,0.093-0.642,0.278-0.874c0.185-0.235,0.45-0.352,0.793-0.352H12.43 M13.5,57.317v5.347
	c0,0.297-0.104,0.552-0.314,0.763c-0.209,0.212-0.463,0.314-0.756,0.314H2.571c-0.294,0-0.547-0.104-0.756-0.314
	C1.604,63.216,1.5,62.961,1.5,62.664v-5.347c0.196,0.221,0.422,0.415,0.677,0.586c1.616,1.104,2.726,1.88,3.328,2.324
	c0.254,0.188,0.461,0.336,0.619,0.44c0.158,0.106,0.369,0.214,0.633,0.322c0.265,0.112,0.509,0.165,0.736,0.165H7.5h0.007
	c0.228,0,0.474-0.053,0.736-0.165c0.264-0.108,0.475-0.216,0.633-0.322c0.158-0.104,0.365-0.253,0.619-0.44
	c0.759-0.554,1.871-1.327,3.336-2.324C13.085,57.728,13.309,57.532,13.5,57.317 M12.43,52.75H2.571c-0.8,0-1.499,0.327-1.968,0.922
	C0.21,54.168,0,54.797,0,55.485c0,0.352,0.073,0.701,0.219,1.048C0.078,56.765,0,57.034,0,57.317v5.347
	c0,0.705,0.263,1.338,0.76,1.833c0.481,0.489,1.111,0.753,1.812,0.753h9.858c0.699,0,1.329-0.264,1.82-0.763
	c0.486-0.483,0.75-1.118,0.75-1.823v-5.347c0-0.288-0.081-0.562-0.227-0.796C14.924,56.143,15,55.746,15,55.336
	c0-0.698-0.264-1.332-0.76-1.83C13.74,53.01,13.115,52.75,12.43,52.75L12.43,52.75z"/>
<path fill="#9CC134" d="M7.5,70.97c1.09,0,2.092,0.187,3.012,0.56c0.92,0.374,1.647,0.882,2.184,1.524
	c0.535,0.646,0.803,1.345,0.803,2.105c0,0.76-0.268,1.462-0.803,2.104c-0.536,0.646-1.264,1.153-2.184,1.525
	C9.592,79.164,8.59,79.35,7.5,79.35c-0.311,0-0.635-0.018-0.971-0.052c-0.883,0.765-1.909,1.292-3.08,1.582
	c-0.218,0.064-0.471,0.11-0.762,0.146c-0.013,0.002-0.026,0.003-0.039,0.003c-0.061,0-0.115-0.021-0.164-0.061
	c-0.061-0.048-0.1-0.113-0.118-0.191v-0.006c-0.013-0.017-0.015-0.042-0.004-0.078c0.011-0.034,0.017-0.058,0.015-0.064
	c-0.004-0.01,0.007-0.031,0.029-0.062c0.022-0.032,0.035-0.054,0.039-0.062c0.006-0.005,0.021-0.022,0.047-0.055
	c0.027-0.029,0.045-0.05,0.054-0.06c0.031-0.034,0.101-0.11,0.208-0.226c0.106-0.112,0.184-0.196,0.231-0.248
	c0.047-0.05,0.116-0.138,0.206-0.26c0.092-0.121,0.164-0.231,0.218-0.335c0.054-0.099,0.114-0.227,0.182-0.386
	c0.066-0.156,0.125-0.321,0.175-0.497c-0.702-0.388-1.253-0.869-1.657-1.44c-0.404-0.571-0.606-1.185-0.606-1.84
	c0-0.567,0.157-1.109,0.476-1.626c0.317-0.517,0.743-0.963,1.278-1.339c0.536-0.375,1.173-0.673,1.915-0.895
	C5.913,71.082,6.688,70.97,7.5,70.97 M7.5,69.5c-0.951,0-1.88,0.132-2.766,0.394C3.835,70.163,3.044,70.533,2.38,71
	c-0.7,0.491-1.269,1.089-1.69,1.776C0.232,73.521,0,74.323,0,75.159c0,0.958,0.294,1.859,0.875,2.677
	c0.28,0.397,0.614,0.763,1,1.093c-0.002,0.002-0.004,0.004-0.006,0.006l-0.036,0.038l-0.187,0.201
	c-0.114,0.122-0.189,0.204-0.223,0.24c-0.017,0.02-0.079,0.088-0.094,0.105c0.016-0.018,0.041-0.042,0.054-0.054
	c-0.086,0.084-0.161,0.178-0.224,0.279c-0.171,0.242-0.25,0.481-0.277,0.697c-0.047,0.256-0.032,0.508,0.041,0.743
	c0.103,0.369,0.315,0.688,0.618,0.927C1.838,82.354,2.24,82.5,2.648,82.5c0.071,0,0.18-0.008,0.25-0.018
	c0.343-0.04,0.663-0.103,0.95-0.183c1.168-0.295,2.231-0.795,3.166-1.491C7.177,80.816,7.338,80.82,7.5,80.82
	c1.28,0,2.487-0.226,3.587-0.672c1.149-0.467,2.082-1.124,2.774-1.957c0.756-0.909,1.14-1.93,1.14-3.032
	c0-1.101-0.384-2.121-1.14-3.033c-0.695-0.834-1.627-1.491-2.773-1.956C9.987,69.726,8.78,69.5,7.5,69.5L7.5,69.5z"/>
<path fill="#C1272D" d="M24.5,18.5c0.828,0,1.535,0.293,2.121,0.879S27.5,20.672,27.5,21.5s-0.293,1.535-0.879,2.121
	S25.328,24.5,24.5,24.5s-1.535-0.293-2.121-0.879S21.5,22.328,21.5,21.5s0.293-1.535,0.879-2.121S23.672,18.5,24.5,18.5 M27.297,24
	c0.317,0,0.607,0.052,0.871,0.156c0.264,0.104,0.484,0.244,0.668,0.418c0.184,0.175,0.344,0.386,0.484,0.633
	c0.141,0.248,0.253,0.502,0.336,0.762c0.083,0.262,0.152,0.543,0.207,0.848c0.055,0.306,0.091,0.59,0.109,0.853
	c0.019,0.265,0.026,0.533,0.026,0.81c0,0.625-0.19,1.117-0.569,1.479c-0.381,0.36-0.887,0.543-1.517,0.543h-6.827
	c-0.63,0-1.136-0.183-1.516-0.543C19.189,29.596,19,29.104,19,28.479c0-0.275,0.009-0.545,0.027-0.81
	c0.019-0.263,0.055-0.547,0.108-0.853c0.054-0.305,0.124-0.586,0.207-0.848c0.083-0.26,0.195-0.514,0.337-0.762
	c0.141-0.247,0.301-0.458,0.484-0.633c0.184-0.174,0.404-0.313,0.668-0.418S21.386,24,21.703,24c0.047,0,0.156,0.056,0.328,0.168
	s0.365,0.237,0.582,0.375c0.216,0.138,0.496,0.263,0.844,0.375c0.348,0.111,0.693,0.168,1.043,0.168s0.695-0.057,1.043-0.168
	c0.348-0.112,0.628-0.237,0.844-0.375c0.217-0.138,0.41-0.263,0.582-0.375S27.25,24,27.297,24 M24.5,17
	c-1.219,0-2.318,0.456-3.182,1.318C20.455,19.18,20,20.281,20,21.5c0,0.452,0.062,0.887,0.186,1.301
	c-0.404,0.173-0.759,0.404-1.058,0.688c-0.287,0.275-0.54,0.603-0.752,0.976c-0.192,0.339-0.349,0.691-0.461,1.049
	c-0.103,0.324-0.188,0.674-0.255,1.037c-0.062,0.354-0.105,0.693-0.129,1.012c-0.021,0.297-0.031,0.602-0.031,0.914
	c0,1.306,0.562,2.115,1.035,2.566C19.193,31.669,20.075,32,21.086,32h6.828c1.011,0,1.893-0.331,2.55-0.957
	c0.474-0.451,1.036-1.262,1.036-2.566c0-0.312-0.01-0.617-0.031-0.914c-0.021-0.317-0.064-0.658-0.129-1.012
	c-0.064-0.363-0.15-0.713-0.254-1.037c-0.113-0.356-0.27-0.708-0.461-1.047c-0.213-0.374-0.466-0.702-0.752-0.976
	c-0.3-0.287-0.655-0.518-1.059-0.69C28.938,22.387,29,21.952,29,21.5c0-1.219-0.456-2.319-1.318-3.182
	C26.82,17.455,25.719,17,24.5,17L24.5,17z"/>
<path fill="#C1272D" d="M21.312,36c0.072,0,0.127,0.008,0.164,0.023c0.094,0.031,0.23,0.23,0.414,0.594
	c0.058,0.1,0.135,0.24,0.233,0.422c0.099,0.184,0.19,0.348,0.272,0.496c0.084,0.148,0.164,0.289,0.242,0.418
	c0.016,0.021,0.062,0.086,0.137,0.195c0.076,0.109,0.133,0.203,0.168,0.277C22.98,38.502,23,38.576,23,38.648
	c0,0.105-0.074,0.234-0.223,0.391c-0.149,0.157-0.311,0.301-0.484,0.43c-0.175,0.131-0.336,0.269-0.484,0.414
	c-0.148,0.146-0.223,0.265-0.223,0.359c0,0.047,0.014,0.105,0.039,0.176c0.025,0.071,0.048,0.125,0.066,0.161
	c0.019,0.037,0.055,0.1,0.108,0.188c0.056,0.09,0.085,0.139,0.091,0.148c0.396,0.715,0.849,1.326,1.359,1.836
	c0.511,0.513,1.122,0.965,1.836,1.358c0.012,0.007,0.061,0.035,0.148,0.091c0.088,0.055,0.151,0.092,0.188,0.11
	c0.036,0.02,0.09,0.041,0.16,0.065c0.07,0.026,0.129,0.039,0.176,0.039c0.094,0,0.215-0.074,0.359-0.224
	c0.145-0.148,0.283-0.309,0.414-0.483c0.13-0.174,0.273-0.336,0.43-0.483c0.157-0.148,0.286-0.224,0.391-0.224
	c0.073,0,0.147,0.021,0.224,0.056c0.075,0.036,0.168,0.094,0.276,0.168c0.109,0.075,0.176,0.121,0.195,0.137
	c0.13,0.078,0.27,0.16,0.418,0.242c0.148,0.084,0.312,0.176,0.496,0.272c0.184,0.101,0.323,0.179,0.422,0.233
	c0.364,0.185,0.562,0.32,0.594,0.414C29.993,44.561,30,44.616,30,44.688c0,0.142-0.025,0.324-0.078,0.552
	c-0.052,0.227-0.105,0.405-0.164,0.534c-0.109,0.263-0.427,0.537-0.953,0.828C28.316,46.868,27.831,47,27.352,47
	c-0.141,0-0.276-0.008-0.41-0.027c-0.133-0.018-0.281-0.051-0.448-0.098s-0.29-0.084-0.371-0.113
	c-0.081-0.027-0.226-0.082-0.435-0.16c-0.207-0.078-0.336-0.125-0.383-0.141c-0.511-0.182-0.966-0.398-1.367-0.648
	c-0.666-0.41-1.354-0.973-2.065-1.684s-1.272-1.398-1.685-2.066c-0.25-0.4-0.465-0.855-0.647-1.368
	c-0.017-0.046-0.063-0.174-0.142-0.383c-0.078-0.207-0.131-0.351-0.16-0.433c-0.028-0.08-0.066-0.203-0.113-0.371
	c-0.047-0.166-0.079-0.317-0.098-0.449C19.008,38.927,19,38.789,19,38.648c0-0.479,0.133-0.963,0.398-1.453
	c0.291-0.525,0.567-0.843,0.828-0.953c0.131-0.057,0.31-0.111,0.535-0.164C20.988,36.027,21.172,36,21.312,36 M21.312,34.5
	c-0.252,0-0.53,0.036-0.879,0.114c-0.33,0.077-0.591,0.159-0.807,0.253c-0.572,0.24-1.068,0.751-1.54,1.6
	C17.695,37.19,17.5,37.92,17.5,38.648c0,0.212,0.014,0.42,0.042,0.618c0.028,0.203,0.075,0.421,0.14,0.649
	c0.059,0.208,0.106,0.362,0.144,0.463c0.026,0.08,0.085,0.238,0.17,0.464c0.065,0.173,0.106,0.284,0.122,0.331
	c0.227,0.637,0.492,1.194,0.798,1.685c0.47,0.763,1.091,1.527,1.896,2.332c0.795,0.795,1.582,1.435,2.342,1.9
	c0.486,0.305,1.045,0.569,1.649,0.784c0.073,0.024,0.185,0.065,0.358,0.132l0.062,0.023c0.196,0.074,0.336,0.125,0.418,0.152
	c0.073,0.027,0.231,0.076,0.445,0.137c0.242,0.068,0.458,0.115,0.658,0.142c0.176,0.026,0.382,0.04,0.605,0.04
	c0.73,0,1.461-0.195,2.17-0.58c0.859-0.477,1.371-0.973,1.621-1.568c0.084-0.186,0.168-0.451,0.241-0.778
	c0.08-0.341,0.118-0.632,0.118-0.886c0-0.256-0.04-0.484-0.121-0.696c-0.23-0.615-0.777-0.944-1.285-1.202
	c-0.103-0.059-0.24-0.135-0.414-0.229c-0.183-0.099-0.337-0.185-0.477-0.264c-0.125-0.069-0.234-0.133-0.336-0.193
	c-0.021-0.016-0.049-0.034-0.079-0.056l-0.079-0.055c-0.188-0.128-0.333-0.215-0.471-0.283c-0.307-0.143-0.596-0.209-0.887-0.209
	c-0.502,0-0.98,0.214-1.425,0.635c-0.155,0.147-0.303,0.306-0.44,0.474c-0.446-0.276-0.842-0.585-1.174-0.918
	c-0.334-0.333-0.642-0.727-0.92-1.178c0.162-0.133,0.321-0.282,0.474-0.44c0.42-0.445,0.634-0.924,0.634-1.425
	c0-0.295-0.066-0.587-0.199-0.866c-0.076-0.157-0.169-0.311-0.287-0.483c-0.051-0.074-0.091-0.13-0.117-0.169
	c-0.062-0.103-0.125-0.212-0.188-0.327c-0.082-0.146-0.169-0.301-0.263-0.474c-0.098-0.18-0.174-0.32-0.234-0.424
	c-0.256-0.505-0.583-1.049-1.195-1.281C21.803,34.541,21.572,34.5,21.312,34.5L21.312,34.5z"/>
<path fill="#C1272D" d="M29.43,54.26c0.289,0,0.541,0.105,0.752,0.315c0.213,0.213,0.318,0.464,0.318,0.761
	c0,0.356-0.109,0.693-0.328,1.018s-0.49,0.6-0.816,0.829c-1.68,1.171-2.724,1.902-3.135,2.188c-0.045,0.032-0.139,0.103-0.285,0.206
	c-0.145,0.106-0.265,0.191-0.361,0.256c-0.096,0.064-0.211,0.138-0.348,0.219c-0.136,0.081-0.265,0.141-0.386,0.182
	c-0.12,0.04-0.231,0.062-0.334,0.062H24.5h-0.007c-0.103,0-0.214-0.021-0.334-0.062c-0.121-0.041-0.25-0.102-0.386-0.183
	c-0.137-0.08-0.252-0.153-0.348-0.218c-0.097-0.064-0.217-0.149-0.361-0.256c-0.146-0.104-0.24-0.174-0.285-0.206
	c-0.406-0.286-0.991-0.695-1.756-1.229c-0.762-0.531-1.219-0.851-1.373-0.959c-0.275-0.188-0.537-0.449-0.782-0.778
	c-0.245-0.33-0.368-0.636-0.368-0.919c0-0.351,0.093-0.642,0.277-0.874c0.186-0.235,0.451-0.352,0.793-0.352H29.43 M30.5,57.317
	v5.347c0,0.297-0.104,0.552-0.314,0.763c-0.209,0.212-0.463,0.314-0.756,0.314H19.57c-0.293,0-0.547-0.104-0.756-0.314
	c-0.211-0.211-0.314-0.466-0.314-0.763v-5.347c0.195,0.221,0.422,0.415,0.677,0.586c1.616,1.104,2.726,1.88,3.328,2.324
	c0.254,0.188,0.461,0.336,0.619,0.44c0.158,0.106,0.369,0.214,0.633,0.322c0.265,0.112,0.509,0.165,0.736,0.165H24.5h0.007
	c0.228,0,0.474-0.053,0.736-0.165c0.264-0.108,0.475-0.216,0.633-0.322c0.158-0.104,0.365-0.253,0.619-0.44
	c0.759-0.554,1.871-1.327,3.336-2.324C30.085,57.728,30.309,57.532,30.5,57.317 M29.43,52.75H19.57
	c-0.799,0-1.498,0.327-1.967,0.922C17.21,54.168,17,54.797,17,55.485c0,0.352,0.073,0.701,0.219,1.048
	C17.078,56.765,17,57.034,17,57.317v5.347c0,0.705,0.264,1.338,0.76,1.833c0.481,0.489,1.111,0.753,1.812,0.753h9.857
	c0.699,0,1.329-0.264,1.82-0.763c0.486-0.483,0.75-1.118,0.75-1.823v-5.347c0-0.288-0.081-0.562-0.227-0.796
	C31.924,56.143,32,55.746,32,55.336c0-0.698-0.264-1.332-0.76-1.83C30.74,53.01,30.115,52.75,29.43,52.75L29.43,52.75z"/>
<path fill="#C1272D" d="M24.5,70.97c1.09,0,2.092,0.187,3.012,0.56c0.921,0.374,1.647,0.882,2.185,1.524
	c0.535,0.646,0.803,1.345,0.803,2.105c0,0.76-0.268,1.462-0.803,2.104c-0.536,0.646-1.264,1.153-2.185,1.525
	c-0.92,0.375-1.922,0.561-3.012,0.561c-0.311,0-0.635-0.018-0.971-0.052c-0.883,0.765-1.908,1.292-3.079,1.582
	c-0.218,0.064-0.472,0.11-0.763,0.146c-0.013,0.002-0.025,0.003-0.039,0.003c-0.061,0-0.114-0.021-0.164-0.061
	c-0.061-0.048-0.1-0.113-0.117-0.191v-0.006c-0.014-0.017-0.016-0.042-0.004-0.078c0.011-0.034,0.017-0.058,0.015-0.064
	c-0.004-0.01,0.007-0.031,0.029-0.062c0.022-0.032,0.034-0.054,0.038-0.062c0.007-0.005,0.021-0.022,0.048-0.055
	c0.026-0.029,0.045-0.05,0.054-0.06c0.031-0.034,0.102-0.11,0.208-0.226c0.106-0.112,0.185-0.196,0.231-0.248
	c0.047-0.05,0.115-0.138,0.205-0.26c0.092-0.121,0.164-0.231,0.218-0.335c0.054-0.099,0.114-0.227,0.182-0.386
	c0.066-0.156,0.125-0.321,0.175-0.497c-0.701-0.388-1.252-0.869-1.656-1.44s-0.606-1.185-0.606-1.84
	c0-0.567,0.157-1.109,0.476-1.626c0.317-0.517,0.744-0.963,1.278-1.339c0.536-0.375,1.173-0.673,1.915-0.895
	C22.912,71.082,23.688,70.97,24.5,70.97 M24.5,69.5c-0.951,0-1.879,0.132-2.766,0.394c-0.898,0.27-1.69,0.64-2.354,1.106
	c-0.7,0.491-1.269,1.089-1.69,1.776C17.232,73.521,17,74.323,17,75.159c0,0.958,0.294,1.859,0.875,2.677
	c0.279,0.397,0.614,0.763,1,1.093c-0.002,0.002-0.004,0.004-0.006,0.006l-0.036,0.038l-0.187,0.201
	c-0.114,0.122-0.189,0.204-0.224,0.24c-0.017,0.02-0.079,0.088-0.094,0.105c0.017-0.018,0.041-0.042,0.054-0.054
	c-0.086,0.084-0.16,0.178-0.224,0.279c-0.171,0.242-0.25,0.481-0.277,0.697c-0.047,0.256-0.032,0.508,0.041,0.743
	c0.103,0.369,0.315,0.688,0.618,0.927c0.297,0.242,0.699,0.388,1.107,0.388c0.07,0,0.18-0.008,0.25-0.018
	c0.343-0.04,0.662-0.103,0.949-0.183c1.168-0.295,2.232-0.795,3.166-1.491c0.164,0.008,0.324,0.012,0.486,0.012
	c1.279,0,2.486-0.226,3.586-0.672c1.149-0.467,2.082-1.124,2.774-1.957c0.756-0.909,1.14-1.93,1.14-3.032
	c0-1.101-0.384-2.121-1.14-3.033c-0.695-0.834-1.627-1.491-2.772-1.956C26.986,69.726,25.779,69.5,24.5,69.5L24.5,69.5z"/>
</svg>
