<?xml version="1.0" encoding="utf-8"?>
<!-- Generator: Adobe Illustrator 15.0.0, SVG Export Plug-In  -->
<!DOCTYPE svg PUBLIC "-//W3C//DTD SVG 1.1//EN" "http://www.w3.org/Graphics/SVG/1.1/DTD/svg11.dtd" [
	<!ENTITY ns_flows "http://ns.adobe.com/Flows/1.0/">
]>
<svg version="1.1"
	 xmlns="http://www.w3.org/2000/svg" xmlns:xlink="http://www.w3.org/1999/xlink" xmlns:a="http://ns.adobe.com/AdobeSVGViewerExtensions/3.0/"
	 x="0px" y="0px" width="190px" height="57px" viewBox="0 0 190 57" overflow="visible" enable-background="new 0 0 190 57"
	 xml:space="preserve">
<defs>
</defs>
<path fill="#231F20" d="M55,18.291h3.886v17H55V18.291z"/>
<path fill="#231F20" d="M76.735,33.615c-1.02,1.143-3.23,1.968-5.537,1.968c-5.271,0-8.913-3.497-8.913-8.792
	c0-4.881,3.036-8.791,8.889-8.791c2.259,0,4.178,0.777,5.197,1.772l-1.725,2.915c-0.923-0.559-1.87-1.044-3.473-1.044
	c-2.623,0-4.76,1.797-4.76,5.148c0,3.012,2.088,5.149,5.148,5.149c1.214,0,2.55-0.389,3.691-1.238L76.735,33.615z"/>
<path fill="#231F20" d="M77.463,18.291h14.085v3.643h-5.1v13.357h-3.886V21.934h-5.1V18.291z"/>
<path fill="#231F20" d="M107.845,33.639c-0.923,1.263-2.574,1.943-4.47,1.943c-3.642,0-5.997-2.308-5.997-5.756
	c0-3.182,2.332-5.756,5.779-5.756c1.869,0,3.474,0.511,4.469,1.555l-1.676,2.866c-0.776-0.776-1.506-1.019-2.332-1.019
	c-1.142,0-2.354,0.802-2.354,2.355c0,1.481,1.262,2.356,2.403,2.356c1.069,0,1.822-0.511,2.478-1.216L107.845,33.639z"/>
<path fill="#231F20" d="M114.646,24.07c3.738,0,6.069,2.478,6.069,5.756c0,3.279-2.331,5.756-6.069,5.756
	c-3.741,0-6.073-2.477-6.073-5.756C108.572,26.548,110.904,24.07,114.646,24.07z M114.646,32.183c1.238,0,2.186-0.875,2.186-2.356
	c0-1.409-0.973-2.355-2.186-2.355c-1.166,0-2.187,0.873-2.187,2.355C112.459,31.21,113.405,32.183,114.646,32.183z"/>
<path fill="#231F20" d="M123.047,25.14c0.874-0.535,2.526-1.07,4.056-1.07c3.328,0,4.541,1.676,4.541,4.638v6.582h-3.156v-0.995
	c-0.535,0.754-1.677,1.142-2.866,1.142c-1.967,0-3.448-1.238-3.448-3.449c0-2.478,1.772-3.618,3.934-3.618
	c0.972,0,1.799,0.339,2.138,0.607c0.072-1.312-0.534-1.87-1.505-1.87c-1.289,0-2.114,0.412-2.794,0.68L123.047,25.14z
	 M128.244,31.842v-0.68c-0.339-0.242-0.777-0.364-1.383-0.364c-0.609,0-1.046,0.291-1.046,0.826c0,0.485,0.437,0.776,1.046,0.776
	C127.589,32.401,128.025,32.133,128.244,31.842z"/>
<path fill="#231F20" d="M143.933,33.639c-0.922,1.263-2.575,1.943-4.468,1.943c-3.645,0-5.999-2.308-5.999-5.756
	c0-3.182,2.331-5.756,5.779-5.756c1.87,0,3.473,0.511,4.469,1.555l-1.676,2.866c-0.776-0.776-1.506-1.019-2.331-1.019
	c-1.143,0-2.355,0.802-2.355,2.355c0,1.481,1.262,2.356,2.402,2.356c1.07,0,1.822-0.511,2.479-1.216L143.933,33.639z"/>
<path fill="#231F20" d="M145.851,18.291h3.642v6.825c0.632-0.559,1.579-0.947,2.697-0.947c2.526,0,4.444,1.287,4.444,4.711v6.411
	h-3.644v-5.949c0-1.092-0.728-1.774-1.748-1.774c-0.632,0-1.238,0.195-1.75,0.707v7.017h-3.642V18.291z"/>
<path fill="#231F20" d="M161.271,18.533c1.044,0,2.064,0.778,2.064,2.065c0,1.433-1.021,2.21-2.064,2.21
	c-1.189,0-2.209-0.778-2.209-2.21C159.062,19.311,160.081,18.533,161.271,18.533z M159.377,24.363h3.642v10.928h-3.642V24.363z"/>
<path fill="#231F20" d="M166.006,24.363h3.645v0.85c0.582-0.559,1.553-1.044,2.694-1.044c2.526,0,4.444,1.19,4.444,4.613v6.509
	h-3.643v-5.876c0-1.264-0.729-1.848-1.796-1.848c-0.656,0-1.166,0.22-1.7,0.754v6.97h-3.645V24.363z"/>
<path fill="#231F20" d="M181.499,33.251c-0.095-0.195-0.146-0.413-0.146-0.607s0.051-0.437,0.171-0.632
	c-1.724-0.68-2.696-2.137-2.696-3.739c0-2.188,1.798-4.203,4.835-4.203c1.093,0,2.038,0.268,2.791,0.729l3.425-0.68L190,27.034
	l-1.627,0.315c0.074,0.316,0.121,0.607,0.121,0.924c0,2.088-1.698,3.934-4.442,4.103c-0.026,0.097-0.026,0.194-0.026,0.268
	c0,0.146,0.026,0.268,0.074,0.412c2.987,0.098,5.392,1.215,5.392,3.645c0,2.524-2.624,3.642-5.805,3.642
	c-3.182,0-5.805-1.045-5.805-3.642C177.882,34.805,179.388,33.689,181.499,33.251z M183.687,37.428c1.555,0,2.403-0.243,2.403-0.728
	c0-0.438-0.703-0.754-2.403-0.754c-1.676,0-2.404,0.315-2.404,0.754C181.282,37.161,182.155,37.428,183.687,37.428z M183.663,29.462
	c0.823,0,1.433-0.412,1.433-1.189c0-0.681-0.438-1.289-1.433-1.289c-0.924,0-1.434,0.632-1.434,1.289
	C182.229,28.953,182.739,29.462,183.663,29.462z"/>
<path fill="#97CA50" d="M0.706,3.338C0.102,3.553-0.013,4.086,0.001,4.817v34.888c-0.003,1.134,1.044,0.959,1.72-0.08l2.03-3.085
	c0.68-1.041,1.237-1.235,1.906-0.674l2.181,2.188c0.676,0.564,1.463,0.145,1.468-0.986V1.515C9.292,0.786,9.406,0.25,10.011,0.038
	L0.706,3.338z"/>
<path fill="#6C9E46" d="M27.085,34.33c3.387-2.717,8.05-3.607,6.289-6.161L11.423,0.764c-0.424-0.553-0.86-0.901-1.445-0.712
	C9.405,0.273,9.292,0.8,9.306,1.515v11.502l14.806,18.439c1.665,2.375-2.932,3.45-6.316,6.168c-2.923,2.346-1.271,7-1.271,7
	l4.157,11.721c0.181,0.51,0.748,0.779,1.258,0.598l7.417-2.633c0.509-0.18,0.779-0.745,0.6-1.254l-4.158-11.723l0.016-0.006
	C25.813,41.328,24.162,36.675,27.085,34.33z"/>
<path fill="#54843C" d="M11.232,0.532c-0.366-0.412-0.757-0.641-1.254-0.48C9.405,0.273,9.292,0.8,9.306,1.515v11.502l5.756,7.168
	L11.232,0.532z"/>
</svg>
